<svg t="1761287445405" class="icon" viewBox="0 0 1024 1024" version="1.1" xmlns="http://www.w3.org/2000/svg" p-id="20042" width="200" height="200"><path d="M512 0C229.189818 0 0 229.189818 0 512s229.189818 512 512 512 512-229.189818 512-512S794.810182 0 512 0z m241.012364 703.301818c12.567273 12.381091 12.8 32.581818 0.465454 45.288727a32.116364 32.116364 0 0 1-45.288727 0.465455L512 556.869818l-196.189091 192.186182a31.976727 31.976727 0 0 1-45.288727-0.465455 31.976727 31.976727 0 0 1 0.465454-45.335272L466.292364 512 270.987636 320.698182a32.116364 32.116364 0 0 1-0.465454-45.288727 32.116364 32.116364 0 0 1 45.288727-0.465455L512 467.130182l196.189091-192.186182a31.976727 31.976727 0 0 1 45.288727 0.465455 31.976727 31.976727 0 0 1-0.465454 45.335272L557.707636 512l195.304728 191.301818z" fill="#F5222D" p-id="20043"></path></svg>